<svg t="1664272255111" class="icon" viewBox="0 0 1024 1024" version="1.1" xmlns="http://www.w3.org/2000/svg" p-id="4203" width="200" height="200"><path d="M966.8096 749.22496a217.6 217.6 0 1 0-217.6 217.6 217.6 217.6 0 0 0 217.6-217.6z" fill="#A1A9F1" p-id="4204" data-spm-anchor-id="a313x.7781069.0.i19" class="selected"></path><path d="M957.44 514.56a442.88 442.88 0 1 0-442.88 442.88 443.392 443.392 0 0 0 442.88-442.88z m-814.32576 0a371.44576 371.44576 0 1 1 371.44576 371.44576A371.8656 371.8656 0 0 1 143.11424 514.56z m605.99808 39.424a51.41504 51.41504 0 0 0-0.19456-72.55552l-159.232-158.63808a35.712 35.712 0 0 0-50.41152 50.60096L646.51264 480.256H290.34496a35.71712 35.71712 0 1 0 0 71.43424h360.36608L535.552 667.56608a35.71712 35.71712 0 1 0 50.688 50.35008z" fill="#515151" p-id="4205" data-spm-anchor-id="a313x.7781069.0.i20" class=""></path></svg>