<svg t="1664280581881" class="icon" viewBox="0 0 1024 1024" version="1.1" xmlns="http://www.w3.org/2000/svg" p-id="6209" width="200" height="200"><path d="M678.54848 630.784a186.55232 186.55232 0 1 0-186.55232 187.68384 187.12064 187.12064 0 0 0 186.55232-187.68384z" fill="#A1A9F1" p-id="6210" data-spm-anchor-id="a313x.7781069.0.i44" class="selected"></path><path d="M155.24864 775.94624a54.7328 54.7328 0 0 1-39.02976-16.51712 55.38816 55.38816 0 0 1-15.54432-39.87456l4.45952-168.448a54.85568 54.85568 0 0 1 15.96928-37.376l433.7664-436.38784a54.44096 54.44096 0 0 1 77.2096 0l166.82496 167.8336a55.16288 55.16288 0 0 1 0 77.68064l-433.5616 436.18304a54.11328 54.11328 0 0 1-38.33856 16.08704l-171.47904 0.82432h-0.27648z m14.81728-218.89024l-4.06016 153.38496 156.35968-0.74752L745.472 284.01152 593.47456 131.072zM326.656 709.632zM909.5424 957.44H114.4576a32.73216 32.73216 0 0 1 0-65.46432h795.0848a32.73216 32.73216 0 0 1 0 65.46432z m-7.77728-142.2336h-330.752a32.73216 32.73216 0 0 1 0-65.46432h330.752a32.73216 32.73216 0 0 1 0 65.46432z" fill="#515151" p-id="6211" data-spm-anchor-id="a313x.7781069.0.i43" class=""></path></svg>