<svg t="1664272447675" class="icon" viewBox="0 0 1024 1024" version="1.1" xmlns="http://www.w3.org/2000/svg" p-id="5499" width="200" height="200"><path d="M941.16352 540.16a226.92352 226.92352 0 1 0-226.92352 226.92352 226.92352 226.92352 0 0 0 226.92352-226.92352z" fill="#A1A9F1" p-id="5500" data-spm-anchor-id="a313x.7781069.0.i36" class="selected"></path><path d="M490.33728 670.11072a205.63968 205.63968 0 0 1-199.99232-155.88864 34.75456 34.75456 0 0 0-67.44576 16.78848 275.02592 275.02592 0 0 0 267.43808 208.53248 34.71872 34.71872 0 1 0 0-69.43232z m441.78432 243.65568l-155.86304-158.5664a408.73472 408.73472 0 1 0-53.76 44.416l160.01024 162.816a34.73408 34.73408 0 0 0 49.6128-48.6656zM151.43424 464.256a338.90304 338.90304 0 1 1 338.90304 338.50368 339.09248 339.09248 0 0 1-338.90304-338.50368z" fill="#515151" p-id="5501" data-spm-anchor-id="a313x.7781069.0.i35" class=""></path></svg>