<svg t="1664272346229" class="icon" viewBox="0 0 1024 1024" version="1.1" xmlns="http://www.w3.org/2000/svg" p-id="4913"
  width="200" height="200">
  <path
    d="M756.7872 631.19872h-236.75392a122.15296 122.15296 0 0 0-122.07616 122.22976v68.16256a122.15296 122.15296 0 0 0 122.07616 122.22976h236.75392a122.15296 122.15296 0 0 0 122.08128-122.22976v-68.16256a122.15296 122.15296 0 0 0-122.08128-122.22976z"
    fill="#A1A9F1" p-id="4914" data-spm-anchor-id="a313x.7781069.0.i27" class=""></path>
  <path
    d="M880.70656 599.6288a35.95264 35.95264 0 0 0-35.9168 35.9936v158.26432a86.4512 86.4512 0 0 1-86.26176 86.44608H224.65536a86.4512 86.4512 0 0 1-86.26176-86.44608V311.67488A86.4512 86.4512 0 0 1 224.65536 225.2288h224.9728a35.9936 35.9936 0 0 0 0-71.9872h-224.9728A158.44352 158.44352 0 0 0 66.56 311.67488v482.21184A158.44352 158.44352 0 0 0 224.65536 952.32H758.528a158.44864 158.44864 0 0 0 158.10048-158.43328v-158.26432a35.95776 35.95776 0 0 0-35.92192-35.9936zM936.77568 244.224l-157.25056-161.69472a35.95776 35.95776 0 1 0-51.46112 50.24256l116.10112 119.3728A582.35392 582.35392 0 0 0 305.9456 686.08a35.92704 35.92704 0 1 0 69.4784 18.30912 510.32576 510.32576 0 0 1 486.75328-380.62592l-122.73664 132.54656a35.95264 35.95264 0 1 0 52.65408 48.96768l143.91296-155.43808a76.83072 76.83072 0 0 0 0.768-105.61536z"
    fill="#515151" p-id="4915" data-spm-anchor-id="a313x.7781069.0.i28" class="selected"></path>
</svg>