    <svg
      t="1664098319935"
      viewBox="0 0 1024 1024"
      version="1.1"
      xmlns="http://www.w3.org/2000/svg"
      p-id="9714"
      data-spm-anchor-id="a313x.7781069.0.i42"
      width="200"
      height="200"
    >
      <path d="M923.136 969.557333H193.024v-909.653333h521.386667l208.725333 207.701333z" fill="#f3f3f3" p-id="9715" data-spm-anchor-id="a313x.7781069.0.i40" class="selected"></path>

      <path
        d="M912.896 253.952l2.56 671.914667c0 15.530667-12.458667 27.989333-27.989333 27.989333H237.909333c-15.530667 0-27.989333-12.458667-27.989333-27.989333V96.938667c0-15.530667 12.458667-27.989333 27.989333-27.989334l493.397334-1.024-38.912-39.936H239.274667c-36.352 0-65.706667 29.354667-65.706667 65.706667v835.584c0 36.352 29.354667 65.706667 65.706667 65.706667h646.826666c36.352 0 65.706667-29.354667 65.706667-65.706667V293.888l-38.912-39.936z"
        fill="#f3f3f3"
        p-id="9716"
        data-spm-anchor-id="a313x.7781069.0.i35"
        class=""
      ></path>
      <path
        d="M692.394667 222.72c0 39.424 31.914667 71.338667 71.338666 71.338667h188.245334L692.394667 27.989333v194.730667z"
        fill="#dbdbdb"
        p-id="9717"
        data-spm-anchor-id="a313x.7781069.0.i38"
        class=""
      ></path>
      <path
        d="M557.568 482.304H158.72c-50.346667 0-91.136-40.789333-91.136-91.136v-60.245333c0-50.346667 40.789333-91.136 91.136-91.136h398.848c50.346667 0 91.136 40.789333 91.136 91.136v60.245333c0 50.346667-40.789333 91.136-91.136 91.136z"
        fill="#A1A9F1"
        p-id="9718"
        data-spm-anchor-id="a313x.7781069.0.i34"
        class=""
      ></path>
      <path
        d="M117.930667 287.573333h146.261333V325.973333H215.04v117.248H166.912V325.973333H117.930667v-38.4zM275.285333 287.573333h53.077334l27.648 47.957334 26.794666-47.957334H435.2l-48.469333 75.434667 53.077333 80.384H385.706667l-30.72-50.005333-30.72 50.005333h-53.76l53.76-81.237333-48.981334-74.581334zM444.245333 287.573333H590.506667V325.973333h-49.152v117.248H493.226667V325.973333h-49.152l0.170666-38.4z"
        fill="#f3f3f3"
        p-id="9719"
        data-spm-anchor-id="a313x.7781069.0.i41"
        class="selected"
      ></path>
      <path
        d="M782.677333 679.594667H342.698667c-15.701333 0-28.330667-12.8-28.330667-28.330667v-5.290667c0-15.701333 12.8-28.330667 28.330667-28.330666h439.978666c15.701333 0 28.330667 12.8 28.330667 28.330666v5.290667c0 15.530667-12.629333 28.330667-28.330667 28.330667z"
        fill="#A1A9F1"
        p-id="9720"
        data-spm-anchor-id="a313x.7781069.0.i36"
        class=""
      ></path>
      <path
        d="M602.282667 810.154667H342.698667c-15.701333 0-28.330667-12.8-28.330667-28.330667V776.533333c0-15.701333 12.8-28.330667 28.330667-28.330666h259.584c15.701333 0 28.330667 12.8 28.330666 28.330666v5.290667c0 15.530667-12.629333 28.330667-28.330666 28.330667z"
        fill="#A1A9F1"
        p-id="9721"
        data-spm-anchor-id="a313x.7781069.0.i37"
        class=""
      ></path>
    </svg>