<svg t="1664281029951" class="icon" viewBox="0 0 1024 1024" version="1.1" xmlns="http://www.w3.org/2000/svg" p-id="5323" width="200" height="200"><path d="M848.858926 608.519351c-10.227216-10.227216-25.56804-10.227216-35.795256 0L728.689139 692.893883l-84.374532-84.374532c-10.227216-10.227216-25.56804-10.227216-35.795256 0s-10.227216 25.56804 0 35.795256l84.374532 84.374532-84.374532 84.374531c-10.227216 10.227216-10.227216 25.56804 0 35.795256 5.113608 5.113608 11.505618 7.670412 17.897628 7.670412s12.78402-2.556804 17.897628-7.670412l84.374532-84.374531 84.374531 84.374531c5.113608 5.113608 11.505618 7.670412 17.897628 7.670412s12.78402-2.556804 17.897628-7.670412c10.227216-10.227216 10.227216-25.56804 0-35.795256L764.484395 728.689139l84.374531-84.374532c10.227216-10.227216 10.227216-25.56804 0-35.795256z" fill="#515151" p-id="5324"></path><path d="M1022.721598 345.168539c0-196.873908-111.220974-345.168539-259.515605-345.168539C626.416979 0 547.156055 92.044944 511.360799 150.851436 475.565543 92.044944 396.304619 0 259.515605 0 111.220974 0 0 148.294632 0 345.168539c0 393.747815 478.122347 663.490637 498.576779 674.996255 3.835206 2.556804 7.670412 3.835206 12.78402 3.835206 3.835206 0 8.948814-1.278402 12.78402-2.556804 1.278402 0 24.289638-12.78402 58.806492-35.795256C625.138577 1008.659176 674.996255 1022.721598 728.689139 1022.721598c162.357054 0 294.032459-131.675406 294.032459-294.032459 0-60.084894-17.897628-116.334582-49.857678-163.635456C1006.102372 492.184769 1022.721598 418.037453 1022.721598 345.168539zM511.360799 967.750312C437.213483 923.006242 51.13608 676.274657 51.13608 345.168539 51.13608 177.697878 140.62422 51.13608 259.515605 51.13608c158.521848 0 224.998752 155.965044 227.555556 163.635456 3.835206 10.227216 12.78402 15.340824 23.011236 15.340824s19.17603-6.39201 23.011236-15.340824c5.113608-7.670412 71.590512-163.635456 230.11236-163.635456C882.097378 51.13608 971.585518 177.697878 971.585518 345.168539c0 57.52809-11.505618 116.334582-35.795256 175.141074C883.37578 467.895131 809.228464 434.656679 728.689139 434.656679c-162.357054 0-294.032459 131.675406-294.03246 294.03246 0 89.48814 39.630462 168.749064 102.27216 223.720349-10.227216 6.39201-19.17603 11.505618-25.56804 15.340824z m217.32834 3.835206c-134.23221 0-242.89638-108.66417-242.89638-242.896379s108.66417-242.89638 242.89638-242.89638 242.89638 108.66417 242.896379 242.89638-108.66417 242.89638-242.896379 242.896379z" fill="#515151" p-id="5325"></path><path d="M341.333333 124.004994c-25.56804-14.062422-53.692884-20.454432-80.539326-20.454432-21.732834 0-43.465668 6.39201-62.641697 19.17603-17.897628 11.505618-35.795256 28.124844-49.857678 48.579276-12.78402 20.454432-24.289638 46.022472-33.238452 76.70412-3.835206 14.062422 3.835206 28.124844 17.897628 31.960049 2.556804 1.278402 5.113608 1.278402 7.670412 1.278402 11.505618 0 21.732834-7.670412 24.289638-19.17603 7.670412-24.289638 16.619226-44.74407 26.846442-60.084893 10.227216-15.340824 21.732834-26.846442 33.238452-34.516854 0 0 1.278402 0 1.278402-1.278402 11.505618-7.670412 23.011236-11.505618 34.516853-11.505618 19.17603 0 38.35206 5.113608 57.52809 15.340824 12.78402 6.39201 28.124844 2.556804 34.516854-10.227216s1.278402-28.124844-11.505618-35.795256z" fill="#A1A9F1" p-id="5326" data-spm-anchor-id="a313x.7781069.0.i8" class="selected"></path></svg>